<?xml version="1.0" encoding="utf-8"?>
<!-- Generator: Adobe Illustrator 19.0.0, SVG Export Plug-In . SVG Version: 6.00 Build 0)  -->
<svg version="1.1" id="Layer_1" xmlns="http://www.w3.org/2000/svg" xmlns:xlink="http://www.w3.org/1999/xlink" x="0px" y="0px"
	 viewBox="0 0 515.9 260" style="enable-background:new 0 0 515.9 260;" xml:space="preserve">
<style type="text/css">
	.st0{fill:#010101;}
	.st1{fill:#06AAB6;}
</style>
<g>
	<path class="st0" d="M461,238.4H65.6V53.5h16.7v84.3h16.7V53.5h16.7v151.8H99.1v-50.7H82.3v67.1H461L461,238.4L461,238.4z"/>
	<path class="st0" d="M183,57.7v147.6h-16.7v-50.7h-16.7v50.7h-16.7V57.7l4.1-4.2h41.8L183,57.7z M166.2,70.4h-16.7v67.4h16.7V70.4z
		"/>
	<path class="st0" d="M233.2,138V70.6h-16.7v118h16.7v-33.8H250v46.3l-4.3,4.4h-41.8l-4.1-4.4V57.9l4.1-4.2h41.8l4.3,4.2V138H233.2z
		"/>
	<path class="st1" d="M316.7,154.7v50.7H300v-50.7h-16.7v50.7h-16.7V53.5h16.7v84.3H300V53.5h16.7v84.3l-8.5,8.5L316.7,154.7z"/>
	<path class="st1" d="M367.1,120.9V70.4h-16.7v67.4h29.2l4.3,4.4v59l-4.3,4.2h-41.8l-4.1-4.2v-29.6h16.7v16.9h16.7v-33.8h-29.3
		l-4.1-4.2V57.7l4.1-4.2h41.8l4.3,4.2v63.2L367.1,120.9L367.1,120.9z"/>
	<path class="st1" d="M54,21.1l396,0.2l0.8,179.9l-4.3,4.2h-41.8l-4.1-4.2V53.5h16.7v134.9h16.7V37.3H54V21.1z"/>
	<path class="st1" d="M29.8,59.6C13.4,59.6,0,46.2,0,29.8C0,13.4,13.4,0,29.8,0s29.8,13.4,29.8,29.8S46.2,59.6,29.8,59.6z
		 M29.8,16.6c-7.3,0-13.2,5.9-13.2,13.2S22.5,43,29.8,43S43,37.1,43,29.8S37.1,16.6,29.8,16.6z"/>
	<path class="st0" d="M486.1,260c-16.4,0-29.8-13.4-29.8-29.8c0-16.4,13.4-29.8,29.8-29.8c16.4,0,29.8,13.4,29.8,29.8
		C515.9,246.6,502.5,260,486.1,260z M486.1,217c-7.3,0-13.2,5.9-13.2,13.2c0,7.3,5.9,13.2,13.2,13.2s13.2-5.9,13.2-13.2
		C499.3,222.9,493.4,217,486.1,217z"/>
</g>
</svg>
